# Aspose.3D Wavefront OBJ Exporter
# Copyright 2004-2022 Aspose Pty Ltd.
# File created: 02/22/2022 04:22:34


#
# object obj_20152997
#

v 5.77350234985351568 5.77350234985351568 5.77350234985351568
v 3.56822109222412112 9.34172344207763672 0
v -5.77350234985351568 5.77350234985351568 5.77350234985351568
v 0 3.56822109222412112 9.34172344207763672
v -3.56822109222412112 9.34172344207763672 0
v 9.34172344207763672 0 3.56822109222412112
v 5.77350234985351568 5.77350234985351568 -5.77350234985351568
v 9.34172344207763672 0 -3.56822109222412112
v 5.77350234985351568 -5.77350234985351568 5.77350234985351568
v 0 -3.56822109222412112 9.34172344207763672
v -5.77350234985351568 5.77350234985351568 -5.77350234985351568
v 0 3.56822109222412112 -9.34172344207763672
v 5.77350234985351568 -5.77350234985351568 -5.77350234985351568
v 3.56822109222412112 -9.34172344207763672 0
v -5.77350234985351568 -5.77350234985351568 5.77350234985351568
v -9.34172344207763672 0 3.56822109222412112
v -9.34172344207763672 0 -3.56822109222412112
v -3.56822109222412112 -9.34172344207763672 0
v 0 -3.56822109222412112 -9.34172344207763672
v -5.77350234985351568 -5.77350234985351568 -5.77350234985351568
# 20 vertices

vn 0 0.85065072774887088 0.52573120594024656
vn 0 0.85065096616744992 0.52573090791702272
vn 0 0.85065066814422608 0.52573126554489136
vn 0.85065072774887088 0.52573120594024656 0
vn 0.85065096616744992 0.52573090791702272 0
vn 0.85065066814422608 0.52573126554489136 0
vn 0.52573120594024656 0 0.85065072774887088
vn 0.52573090791702272 0 0.85065096616744992
vn 0.52573126554489136 0 0.85065066814422608
vn 0 0.85065072774887088 -0.52573120594024656
vn 0 0.85065066814422608 -0.52573132514953616
vn 0 0.85065096616744992 -0.52573090791702272
vn 0.85065072774887088 -0.52573120594024656 0
vn 0.85065066814422608 -0.52573132514953616 0
vn 0.85065096616744992 -0.52573090791702272 0
vn -0.52573120594024656 0 0.85065072774887088
vn -0.52573132514953616 0 0.85065066814422608
vn -0.52573090791702272 0 0.85065096616744992
vn -0.85065084695816048 0.52573096752166752 -7.301194671072153E-08
vn -0.85065072774887088 0.52573108673095704 7.875720342553905E-08
vn -0.85065066814422608 0.52573132514953616 0
vn 0 -0.85065072774887088 0.52573120594024656
vn 0 -0.85065096616744992 0.52573090791702272
vn 0 -0.85065066814422608 0.52573126554489136
vn 0.52573120594024656 0 -0.85065072774887088
vn 0.52573090791702272 0 -0.85065096616744992
vn 0.52573126554489136 0 -0.85065066814422608
vn -0.52573102712631224 -9.734926464943783E-08 -0.85065084695816048
vn -0.52573126554489136 0 -0.85065066814422608
vn -0.52573108673095704 1.181358157964496E-07 -0.85065078735351568
vn -0.85065084695816048 -0.52573102712631224 -9.734926464943783E-08
vn -0.85065066814422608 -0.52573126554489136 0
vn -0.85065078735351568 -0.52573108673095704 1.181358157964496E-07
vn -9.734926464943783E-08 -0.85065084695816048 -0.52573102712631224
vn 0 -0.85065066814422608 -0.52573126554489136
vn 1.181358157964496E-07 -0.85065078735351568 -0.52573108673095704
# 36 vertex normals

g obj_20152997
s 1
f 1//1 2//1 3//1
f 3//2 4//2 1//2
f 2//3 5//3 3//3
f 1//4 6//4 7//4
f 7//5 2//5 1//5
f 6//6 8//6 7//6
f 1//7 4//7 9//7
f 9//8 6//8 1//8
f 4//9 10//9 9//9
f 2//10 7//10 11//10
f 11//11 5//11 2//11
f 7//12 12//12 11//12
f 6//13 9//13 13//13
f 13//14 8//14 6//14
f 9//15 14//15 13//15
f 4//16 3//16 15//16
f 15//17 10//17 4//17
f 3//18 16//18 15//18
f 5//19 11//19 16//19
f 16//20 3//20 5//20
f 11//21 17//21 16//21
f 15//22 18//22 9//22
f 9//23 10//23 15//23
f 18//24 14//24 9//24
f 13//25 19//25 7//25
f 7//26 8//26 13//26
f 19//27 12//27 7//27
f 20//28 17//28 12//28
f 12//29 19//29 20//29
f 17//30 11//30 12//30
f 20//31 18//31 16//31
f 16//32 17//32 20//32
f 18//33 15//33 16//33
f 20//34 19//34 14//34
f 14//35 18//35 20//35
f 19//36 13//36 14//36
#36 polygons

