# Blender v2.79 (sub 0) OBJ File: ''
# www.blender.org
o Regular_icosahedron
v 0.000000 0.850651 -0.525731
v 0.850651 0.525731 0.000000
v 0.525731 0.000000 -0.850651
v 0.000000 0.850651 0.525731
v 0.525731 0.000000 0.850651
v 0.000000 -0.850651 0.525731
v -0.850651 -0.525731 0.000000
v 0.000000 -0.850651 -0.525731
v -0.525731 0.000000 -0.850651
v 0.850651 -0.525731 0.000000
v -0.850651 0.525731 0.000000
v -0.525731 0.000000 0.850651
vn 0.5774 0.5774 -0.5774
vn 0.3568 0.9342 0.0000
vn 0.5774 0.5774 0.5774
vn -0.3568 -0.9342 0.0000
vn 0.0000 0.3568 -0.9342
vn 0.0000 -0.3568 -0.9342
vn -0.5774 -0.5774 -0.5774
vn 0.9342 0.0000 0.3568
vn 0.3568 -0.9342 0.0000
vn 0.9342 0.0000 -0.3568
vn 0.5774 -0.5774 -0.5774
vn 0.5774 -0.5774 0.5774
vn -0.3568 0.9342 0.0000
vn -0.5774 0.5774 -0.5774
vn -0.9342 0.0000 -0.3568
vn 0.0000 0.3568 0.9342
vn -0.5774 0.5774 0.5774
vn -0.5774 -0.5774 0.5774
vn 0.0000 -0.3568 0.9342
vn -0.9342 0.0000 0.3568
s off
f 1//1 2//1 3//1
f 4//2 2//2 1//2
f 4//3 5//3 2//3
f 6//4 7//4 8//4
f 9//5 1//5 3//5
f 9//6 3//6 8//6
f 9//7 8//7 7//7
f 10//8 2//8 5//8
f 10//9 6//9 8//9
f 10//10 3//10 2//10
f 10//11 8//11 3//11
f 10//12 5//12 6//12
f 11//13 4//13 1//13
f 11//14 1//14 9//14
f 11//15 9//15 7//15
f 12//16 5//16 4//16
f 12//17 4//17 11//17
f 12//18 7//18 6//18
f 12//19 6//19 5//19
f 12//20 11//20 7//20
